HIERARCHY
ROOT Hips
{
	OFFSET 0.000000 0.000000 0.000000 
	CHANNELS 6 Xposition Yposition Zposition Zrotation Yrotation Xrotation
	JOINT LeftUpLeg
	{
		OFFSET 1.363060 -1.794630 0.839290 
		CHANNELS 3 Zrotation Yrotation Xrotation
		JOINT LeftLeg
		{
			OFFSET 2.448110 -6.726130 0.000000 
			CHANNELS 3 Zrotation Yrotation Xrotation
			JOINT LeftFoot
			{
				OFFSET 2.562200 -7.039590 0.000000 
				CHANNELS 3 Zrotation Yrotation Xrotation
				JOINT LeftToeBase
				{
					OFFSET 0.157640 -0.433110 2.322550 
					CHANNELS 3 Zrotation Yrotation Xrotation
					End Site
					{
						OFFSET 0.000000 0.000000 0.000000 
					}
				}
			}
		}
	}
	JOINT RightUpLeg
	{
		OFFSET -1.305520 -1.794630 0.839290 
		CHANNELS 3 Zrotation Yrotation Xrotation
		JOINT RightLeg
		{
			OFFSET -2.542530 -6.985550 0.000000 
			CHANNELS 3 Zrotation Yrotation Xrotation
			JOINT RightFoot
			{
				OFFSET -2.568260 -7.056230 0.000000 
				CHANNELS 3 Zrotation Yrotation Xrotation
				JOINT RightToeBase
				{
					OFFSET -0.164730 -0.452590 2.363150 
					CHANNELS 3 Zrotation Yrotation Xrotation
					End Site
					{
						OFFSET 0.000000 0.000000 0.000000 
					}
				}
			}
		}
	}
	JOINT Spine
	{
		OFFSET 0.028270 2.035590 -0.193380 
		CHANNELS 3 Zrotation Yrotation Xrotation
		JOINT Spine1
		{
			OFFSET 0.056720 2.048850 -0.042750 
			CHANNELS 3 Zrotation Yrotation Xrotation
			JOINT Neck1
			{
				OFFSET -0.054170 1.746240 0.172020 
				CHANNELS 3 Zrotation Yrotation Xrotation
				JOINT Head
				{
					OFFSET 0.104070 1.761360 -0.123970 
					CHANNELS 3 Zrotation Yrotation Xrotation
					End Site
					{
						OFFSET 0.000000 0.000000 0.000000 
					}
				}
			}
			JOINT LeftArm
			{
				OFFSET 3.362410 1.200890 -0.311210 
				CHANNELS 3 Zrotation Yrotation Xrotation
				JOINT LeftForeArm
				{
					OFFSET 4.983000 -0.000000 -0.000000 
					CHANNELS 3 Zrotation Yrotation Xrotation
					JOINT LeftHand
					{
						OFFSET 3.483560 -0.000000 -0.000000 
						CHANNELS 3 Zrotation Yrotation Xrotation
						JOINT LeftHandIndex1
						{
							OFFSET 0.715260 -0.000000 -0.000000 
							CHANNELS 3 Zrotation Yrotation Xrotation
							End Site
							{
								OFFSET 0.000000 0.000000 0.000000 
							}
						}
					}
				}
			}
			JOINT RightArm
			{
				OFFSET -3.136600 1.374050 -0.404650 
				CHANNELS 3 Zrotation Yrotation Xrotation
				JOINT RightForeArm
				{
					OFFSET -5.241900 -0.000000 -0.000000 
					CHANNELS 3 Zrotation Yrotation Xrotation
					JOINT RightHand
					{
						OFFSET -3.444170 -0.000000 -0.000000 
						CHANNELS 3 Zrotation Yrotation Xrotation
						JOINT RightHandIndex1
						{
							OFFSET -0.622530 -0.000000 -0.000000 
							CHANNELS 3 Zrotation Yrotation Xrotation
							End Site
							{
								OFFSET 0.000000 0.000000 0.000000 
							}
						}
					}
				}
			}
		}
	}
}
MOTION
Frames: 7
Frame Time: 0.041667
-9.355539 17.452803 -15.928456 -159.882212 85.607521 -162.801582 -14.046450 -9.866782 3.069278 -0.763786 8.273927 22.878982 1.014628 0.515572 -18.091010 0.011700 -0.699200 -1.921600 24.925521 -11.289237 14.915144 1.977584 -0.750433 3.686595 0.236308 -11.266363 -13.208816 -0.014200 -0.769700 2.115400 1.520152 -1.047596 -1.444012 1.891291 -0.748822 -3.722064 4.409526 -4.907669 20.905816 2.001900 -2.277500 16.127600 -78.753749 8.172394 67.441787 102.170136 -54.070449 -67.066445 -1.464359 0.546532 -33.147008 -7.125000 0.000000 0.000000 80.664778 -12.190841 54.766940 -101.161580 54.856285 -64.525171 1.387288 -1.311760 -4.199652 7.125000 0.000000 0.000000 
-9.371105 17.457181 -15.928066 -159.445235 85.513332 -162.236204 -13.950316 -9.945174 2.863541 -0.760684 8.287935 22.908043 0.998175 0.575085 -18.006881 0.015900 -0.815000 -2.240000 25.024008 -11.267591 14.690840 1.976106 -0.761305 3.676213 0.236452 -11.262309 -13.180635 -0.019500 -0.902000 2.479200 1.556759 -1.105806 -1.459265 1.915063 -0.781343 -3.748453 4.413307 -4.957827 20.957081 1.983900 -2.285400 16.176900 -78.701264 7.920223 67.232578 102.324522 -54.034714 -67.251001 -1.458870 0.545177 -32.950373 -7.125000 0.000000 0.000000 80.842474 -12.008707 54.524387 -101.307401 54.827523 -64.656128 1.399475 -1.327797 -3.847081 7.125000 0.000000 0.000000 
-9.386281 17.462434 -15.927094 -159.301383 85.472605 -161.942101 -13.885478 -10.020108 2.651589 -0.764538 8.298190 22.911491 0.981828 0.645216 -17.942167 0.016700 -0.833300 -2.290400 25.097160 -11.206632 14.450584 1.973820 -0.769092 3.664458 0.238966 -11.273231 -13.136594 -0.024800 -1.017000 2.795700 1.587480 -1.134204 -1.473730 1.958170 -0.796020 -3.765707 4.440841 -5.015025 21.015770 1.984300 -2.297100 16.238800 -78.692147 7.705944 67.033695 102.603255 -53.973808 -67.555435 -1.452139 0.543167 -32.723332 -7.125000 0.000000 0.000000 80.954648 -11.862009 54.322779 -101.474495 54.791267 -64.818811 1.407014 -1.337513 -3.588087 7.125000 0.000000 0.000000 
-9.401068 17.468077 -15.925732 -159.603077 85.488103 -162.089201 -13.869468 -10.098744 2.461254 -0.777233 8.303059 22.881963 0.966657 0.724690 -17.904750 0.013400 -0.748700 -2.057500 25.121366 -11.125786 14.225380 1.970014 -0.772082 3.653605 0.241802 -11.283832 -13.092606 -0.030700 -1.130900 3.109000 1.605605 -1.125969 -1.483925 2.006811 -0.789028 -3.781386 4.509612 -5.092629 21.060200 2.015800 -2.320600 16.298800 -78.702693 7.506505 66.890046 102.990489 -53.889958 -67.964425 -1.442825 0.538475 -32.508967 -7.125000 0.000000 0.000000 81.013937 -11.752362 54.139687 -101.665912 54.746675 -65.019191 1.409447 -1.340126 -3.409139 7.125000 0.000000 0.000000 
-9.415564 17.473622 -15.924467 -160.314545 85.548708 -162.666379 -13.900409 -10.175068 2.308035 -0.797699 8.301320 22.820649 0.952189 0.810972 -17.888503 0.008800 -0.606700 -1.667200 25.094028 -11.041920 14.037380 1.964661 -0.770235 3.645176 0.242917 -11.278091 -13.065039 -0.038400 -1.265300 3.479000 1.608989 -1.080962 -1.488704 2.045527 -0.760817 -3.805577 4.625595 -5.198581 21.067266 2.082300 -2.360800 16.338100 -78.715790 7.303489 66.821652 103.441373 -53.791736 -68.434408 -1.430607 0.530787 -32.315605 -7.125000 0.000000 0.000000 81.044940 -11.674248 53.950328 -101.884839 54.693519 -65.261351 1.406683 -1.336006 -3.283911 7.125000 0.000000 0.000000 
-9.429962 17.478681 -15.923494 -161.225258 85.635325 -163.467594 -13.957498 -10.232238 2.190504 -0.822280 8.293090 22.737608 0.937774 0.899572 -17.877931 0.005500 -0.478000 -1.313500 25.034317 -10.961246 13.891593 1.958518 -0.765242 3.639223 0.241187 -11.249929 -13.059524 -0.048600 -1.422800 3.913100 1.600518 -1.006040 -1.490358 2.062344 -0.716671 -3.846314 4.778645 -5.328870 21.024346 2.175600 -2.416100 16.342200 -78.726133 7.085712 66.819201 103.897579 -53.691173 -68.907584 -1.416628 0.521617 -32.119034 -7.125000 0.000000 0.000000 81.109170 -11.615777 53.688939 -102.065861 54.649393 -65.474173 1.400700 -1.330476 -3.161323 7.125000 0.000000 0.000000 
-9.444262 17.483156 -15.923105 -162.032827 85.727826 -164.186767 -14.011377 -10.253540 2.093399 -0.846051 8.279708 22.648234 0.922726 0.985872 -17.857793 0.004300 -0.424700 -1.167000 24.974802 -10.878113 13.774563 1.952886 -0.759823 3.634336 0.237892 -11.209769 -13.066373 -0.059600 -1.575500 4.333800 1.586106 -0.915703 -1.493343 2.057089 -0.666203 -3.907824 4.941628 -5.463572 20.935602 2.277200 -2.477000 16.307300 -78.740225 6.851431 66.844871 104.307104 -53.599526 -69.332424 -1.402906 0.513300 -31.884813 -7.125000 0.000000 0.000000 81.147133 -11.506752 53.480922 -102.305122 54.589116 -65.755864 1.389464 -1.316874 -3.118063 7.125000 0.000000 0.000000 
